<svg width="263" height="64" viewBox="0 0 263 64" fill="none" xmlns="http://www.w3.org/2000/svg">
<g clip-path="url(#clip0_322_23)">
<rect width="64" height="64" rx="16" fill="black"/>
<path d="M57.9137 21.9874C59.2252 23.6683 59.2083 25.6964 58.5715 27.4532C57.9455 29.1799 56.6774 30.8372 55.0935 32.2492C51.9196 35.0787 47.0228 37.3276 41.6802 37.2628C40.9418 37.2539 40.1671 37.254 39.3639 37.2581C38.5645 38.5654 37.8234 39.8729 37.2005 41.1274C36.0872 43.3698 35.4519 45.2272 35.3601 46.5124C35.3155 47.1364 35.4139 47.4498 35.4836 47.5804C35.5213 47.6509 35.588 47.7593 35.8916 47.8541C37.8716 48.4719 40.2286 47.5575 42.7321 45.3989C45.1543 43.3104 47.2076 40.4707 48.3364 38.5052C48.8852 37.5499 50.1047 37.2199 51.0602 37.7685C52.0155 38.3173 52.3455 39.5368 51.7969 40.4922C50.5117 42.73 48.1912 45.9604 45.3378 48.4208C42.5656 50.811 38.7438 52.9247 34.7015 51.6626C33.4998 51.2873 32.5431 50.5448 31.964 49.4608C31.4169 48.4365 31.3039 47.291 31.3799 46.2278C31.5292 44.138 32.4585 41.7059 33.6269 39.3526C33.9527 38.6963 34.3075 38.0302 34.6814 37.3592C32.273 37.4543 29.7532 37.6199 27.2736 37.8825C26.1642 40.6712 24.9205 43.3572 23.5521 45.6667C22.1877 47.9694 20.6306 50.0185 18.8621 51.3986C16.5914 53.1704 14.0088 54.0944 11.7677 54.3442C10.6484 54.4689 9.55182 54.4327 8.5828 54.2058C7.6797 53.9943 6.66986 53.5616 5.97216 52.7126L5.96215 52.7204L4.76905 51.1914L4.78137 51.1818C4.17664 50.3142 4.01454 49.2676 4.02848 48.3691C4.04394 47.3739 4.27546 46.3015 4.66855 45.2461C5.45567 43.133 6.97989 40.8525 9.25064 39.0807C11.0193 37.7008 13.3855 36.6886 15.9508 35.925C18.5236 35.1592 21.431 34.6051 24.4056 34.2069C25.2631 31.8656 26.0371 29.4623 26.7148 27.1494C25.973 27.3489 25.2407 27.5311 24.5249 27.6876C21.9581 28.2488 19.3731 28.5589 17.3096 28.1957C16.2599 28.0108 15.1762 27.6228 14.3156 26.843C13.4049 26.0178 12.9173 24.9093 12.8454 23.6524C12.6039 19.4245 15.5834 16.2313 18.576 14.1234C21.6563 11.9537 25.3539 10.4883 27.837 9.78574C28.8972 9.48584 29.9999 10.1023 30.2999 11.1626C30.5997 12.2227 29.9832 13.3254 28.923 13.6255C26.7421 14.2426 23.4884 15.5438 20.8737 17.3856C18.1711 19.2892 16.7111 21.3531 16.8291 23.4239C16.8473 23.7415 16.9361 23.8325 16.9954 23.8862C17.1051 23.9855 17.3853 24.1572 18.0013 24.2657C19.2702 24.4891 21.2264 24.3244 23.6721 23.7897C25.0405 23.4905 26.4889 23.0895 27.9514 22.632C28.1506 21.8538 28.339 21.1025 28.5099 20.384C29.7459 15.186 33.1179 10.9829 36.6342 8.59208C38.3889 7.39901 40.3048 6.57197 42.1319 6.38451C43.9909 6.19392 45.9621 6.67061 47.2737 8.35149C48.4548 9.86528 48.8397 11.538 48.5635 13.1842C48.3015 14.7457 47.4744 16.1249 46.5325 17.255C44.6572 19.505 41.8789 21.3015 39.9053 22.2725L39.8816 22.2835L39.0818 22.6475C36.8516 23.6469 34.1014 24.7643 31.2583 25.7446C30.5664 28.283 29.7431 31.0143 28.8076 33.7288C31.6682 33.4813 34.5181 33.3476 37.1487 33.2936C38.7908 30.7742 40.5433 28.3781 42.0549 26.4578L42.6025 25.7705L42.6189 25.7502C44.0406 24.0719 46.4587 21.8138 49.0971 20.5417C50.4223 19.9029 51.9612 19.4359 53.5396 19.5614C55.2035 19.6938 56.7325 20.4738 57.9137 21.9874ZM22.6961 38.4976C20.6812 38.8326 18.7834 39.2454 17.0895 39.7496C14.7394 40.4492 12.912 41.2852 11.7053 42.2266C10.0438 43.523 8.94921 45.185 8.40756 46.6392C8.13639 47.3673 8.02561 47.9858 8.01868 48.4315C8.01334 48.7798 8.07039 48.9161 8.07247 48.9259C8.07752 48.9327 8.08161 48.9402 8.08655 48.9471L9.00871 50.1289C9.01417 50.1354 9.02048 50.1412 9.02587 50.1478C9.0355 50.1527 9.15424 50.2409 9.49234 50.3201C9.92637 50.4218 10.5532 50.4647 11.3254 50.3787C12.8677 50.2068 14.7459 49.5491 16.4074 48.2527C17.6139 47.3111 18.8691 45.7418 20.1191 43.6323C21.0201 42.1117 21.8812 40.3706 22.6961 38.4976ZM44.1278 10.8062C43.9054 10.5211 43.4801 10.2575 42.5388 10.354C41.5653 10.4539 40.2749 10.9416 38.8779 11.8914C36.1442 13.7501 33.4777 17.0534 32.451 21.0694C34.544 20.2747 36.5167 19.4384 38.1542 18.6854C39.8367 17.856 42.0786 16.367 43.4677 14.7004C44.1594 13.8704 44.5265 13.1309 44.6283 12.5239C44.7159 12.0016 44.6339 11.4549 44.1278 10.8062ZM54.7678 24.4421C54.2616 23.7935 53.7512 23.5811 53.2233 23.539C52.6098 23.4903 51.8031 23.6666 50.83 24.1357C48.8756 25.0779 46.8863 26.8905 45.6726 28.3209C44.5442 29.7262 43.2533 31.4363 41.9736 33.2733C46.1187 33.2538 49.9712 31.4704 52.4387 29.2707C53.6997 28.1465 54.4865 27.0134 54.82 26.0934C55.1425 25.2039 54.9902 24.7272 54.7678 24.4421Z" fill="url(#paint0_linear_322_23)"/>
</g>
<path d="M103.822 23.3164C103.654 21.7471 102.947 20.5253 101.701 19.6508C100.467 18.7763 98.8622 18.3391 96.8857 18.3391C95.4961 18.3391 94.3042 18.5487 93.3099 18.968C92.3156 19.3872 91.5549 19.9562 91.0279 20.675C90.5008 21.3938 90.2312 22.2143 90.2193 23.1367C90.2193 23.9034 90.393 24.5682 90.7404 25.1313C91.0997 25.6943 91.5849 26.1734 92.1958 26.5688C92.8068 26.9521 93.4836 27.2755 94.2263 27.5391C94.969 27.8026 95.7177 28.0242 96.4724 28.2039L99.9224 29.0664C101.312 29.3898 102.648 29.8271 103.929 30.3781C105.223 30.9292 106.379 31.624 107.397 32.4625C108.428 33.301 109.242 34.3133 109.841 35.4992C110.44 36.6852 110.74 38.0747 110.74 39.668C110.74 41.8242 110.189 43.7229 109.086 45.3641C107.984 46.9932 106.391 48.269 104.307 49.1914C102.234 50.1018 99.7247 50.557 96.7779 50.557C93.9148 50.557 91.4292 50.1138 89.3208 49.2273C87.2245 48.3409 85.5833 47.0471 84.3974 45.3461C83.2234 43.6451 82.5885 41.5727 82.4927 39.1289H89.0513C89.1471 40.4107 89.5424 41.4768 90.2372 42.3273C90.932 43.1779 91.8364 43.8128 92.9505 44.232C94.0765 44.6513 95.3344 44.8609 96.7239 44.8609C98.1734 44.8609 99.4432 44.6453 100.533 44.2141C101.635 43.7708 102.498 43.1599 103.121 42.3812C103.744 41.5906 104.061 40.6682 104.073 39.6141C104.061 38.6557 103.78 37.8651 103.229 37.2422C102.678 36.6073 101.905 36.0802 100.911 35.6609C99.9284 35.2297 98.7784 34.8464 97.4607 34.5109L93.2739 33.4328C90.2432 32.6542 87.8474 31.4742 86.0864 29.893C84.3375 28.2997 83.463 26.1854 83.463 23.55C83.463 21.3818 84.05 19.4831 85.2239 17.8539C86.4099 16.2247 88.0211 14.9609 90.0575 14.0625C92.094 13.1521 94.4 12.6969 96.9755 12.6969C99.587 12.6969 101.875 13.1521 103.84 14.0625C105.816 14.9609 107.367 16.2128 108.493 17.818C109.62 19.4112 110.201 21.244 110.236 23.3164H103.822ZM126.084 50.5391C123.317 50.5391 120.927 49.9641 118.914 48.8141C116.914 47.6521 115.375 46.0109 114.296 43.8906C113.218 41.7583 112.679 39.2487 112.679 36.3617C112.679 33.5227 113.218 31.031 114.296 28.8867C115.387 26.7305 116.908 25.0534 118.861 23.8555C120.813 22.6456 123.107 22.0406 125.743 22.0406C127.444 22.0406 129.049 22.3161 130.558 22.8672C132.08 23.4062 133.421 24.2448 134.583 25.3828C135.757 26.5208 136.68 27.9703 137.35 29.7313C138.021 31.4802 138.357 33.5646 138.357 35.9844V37.9789H115.734V33.5945H132.121C132.11 32.3487 131.84 31.2406 131.313 30.2703C130.786 29.288 130.049 28.5154 129.103 27.9523C128.168 27.3893 127.078 27.1078 125.832 27.1078C124.503 27.1078 123.335 27.4313 122.329 28.0781C121.322 28.713 120.538 29.5516 119.975 30.5937C119.424 31.624 119.142 32.756 119.13 33.9898V37.8172C119.13 39.4224 119.424 40.8 120.011 41.95C120.598 43.088 121.418 43.9625 122.472 44.5734C123.526 45.1724 124.76 45.4719 126.174 45.4719C127.12 45.4719 127.977 45.3401 128.743 45.0766C129.51 44.801 130.175 44.3997 130.738 43.8727C131.301 43.3456 131.726 42.6927 132.014 41.9141L138.087 42.5969C137.704 44.2021 136.973 45.6036 135.895 46.8016C134.829 47.9875 133.463 48.9099 131.798 49.5688C130.133 50.2156 128.228 50.5391 126.084 50.5391ZM141.33 50V22.4H147.637V27H147.924C148.427 25.4068 149.29 24.1789 150.512 23.3164C151.745 22.4419 153.153 22.0047 154.734 22.0047C155.094 22.0047 155.495 22.0227 155.938 22.0586C156.393 22.0826 156.771 22.1245 157.07 22.1844V28.168C156.795 28.0721 156.357 27.9883 155.758 27.9164C155.171 27.8326 154.602 27.7906 154.051 27.7906C152.866 27.7906 151.799 28.0482 150.853 28.5633C149.919 29.0664 149.182 29.7672 148.643 30.6656C148.104 31.5641 147.834 32.6003 147.834 33.7742V50H141.33ZM169.728 60.925C167.392 60.925 165.386 60.6076 163.709 59.9727C162.032 59.3497 160.684 58.5112 159.666 57.457C158.648 56.4029 157.941 55.2349 157.545 53.9531L163.403 52.5336C163.667 53.0727 164.05 53.6057 164.553 54.1328C165.056 54.6719 165.733 55.1151 166.584 55.4625C167.446 55.8219 168.53 56.0016 169.836 56.0016C171.681 56.0016 173.208 55.5523 174.418 54.6539C175.628 53.7674 176.233 52.306 176.233 50.2695V45.0406H175.91C175.574 45.7115 175.083 46.4003 174.436 47.107C173.801 47.8138 172.957 48.4068 171.902 48.8859C170.86 49.3651 169.549 49.6047 167.967 49.6047C165.847 49.6047 163.924 49.1076 162.199 48.1133C160.486 47.107 159.121 45.6096 158.102 43.6211C157.096 41.6206 156.593 39.1169 156.593 36.1102C156.593 33.0794 157.096 30.5219 158.102 28.4375C159.121 26.3411 160.492 24.7539 162.217 23.6758C163.942 22.5857 165.865 22.0406 167.985 22.0406C169.602 22.0406 170.932 22.3161 171.974 22.8672C173.029 23.4062 173.867 24.0591 174.49 24.8258C175.113 25.5805 175.586 26.2932 175.91 26.9641H176.269V22.4H182.684V50.4492C182.684 52.8091 182.121 54.7617 180.995 56.307C179.869 57.8523 178.329 59.0083 176.377 59.775C174.424 60.5417 172.208 60.925 169.728 60.925ZM169.782 44.5016C171.16 44.5016 172.334 44.1661 173.304 43.4953C174.274 42.8245 175.011 41.8602 175.514 40.6023C176.017 39.3445 176.269 37.8352 176.269 36.0742C176.269 34.3372 176.017 32.8159 175.514 31.5102C175.023 30.2044 174.292 29.1922 173.322 28.4734C172.364 27.7427 171.184 27.3773 169.782 27.3773C168.333 27.3773 167.123 27.7547 166.152 28.5094C165.182 29.2641 164.451 30.3003 163.96 31.618C163.469 32.9237 163.224 34.4091 163.224 36.0742C163.224 37.7633 163.469 39.2427 163.96 40.5125C164.463 41.7703 165.2 42.7526 166.17 43.4594C167.153 44.1542 168.357 44.5016 169.782 44.5016ZM199.039 50.5391C196.272 50.5391 193.882 49.9641 191.869 48.8141C189.869 47.6521 188.33 46.0109 187.251 43.8906C186.173 41.7583 185.634 39.2487 185.634 36.3617C185.634 33.5227 186.173 31.031 187.251 28.8867C188.342 26.7305 189.863 25.0534 191.815 23.8555C193.768 22.6456 196.062 22.0406 198.697 22.0406C200.399 22.0406 202.004 22.3161 203.513 22.8672C205.034 23.4062 206.376 24.2448 207.538 25.3828C208.712 26.5208 209.634 27.9703 210.305 29.7313C210.976 31.4802 211.312 33.5646 211.312 35.9844V37.9789H188.689V33.5945H205.076C205.064 32.3487 204.795 31.2406 204.268 30.2703C203.741 29.288 203.004 28.5154 202.058 27.9523C201.123 27.3893 200.033 27.1078 198.787 27.1078C197.458 27.1078 196.29 27.4313 195.283 28.0781C194.277 28.713 193.493 29.5516 192.93 30.5937C192.378 31.624 192.097 32.756 192.085 33.9898V37.8172C192.085 39.4224 192.378 40.8 192.965 41.95C193.552 43.088 194.373 43.9625 195.427 44.5734C196.481 45.1724 197.715 45.4719 199.129 45.4719C200.075 45.4719 200.932 45.3401 201.698 45.0766C202.465 44.801 203.13 44.3997 203.693 43.8727C204.256 43.3456 204.681 42.6927 204.969 41.9141L211.042 42.5969C210.659 44.2021 209.928 45.6036 208.85 46.8016C207.784 47.9875 206.418 48.9099 204.753 49.5688C203.088 50.2156 201.183 50.5391 199.039 50.5391ZM218.292 50.3953C217.201 50.3953 216.267 50.012 215.488 49.2453C214.71 48.4786 214.326 47.5443 214.338 46.4422C214.326 45.3641 214.71 44.4417 215.488 43.675C216.267 42.9083 217.201 42.525 218.292 42.525C219.346 42.525 220.262 42.9083 221.041 43.675C221.831 44.4417 222.233 45.3641 222.245 46.4422C222.233 47.1729 222.041 47.8378 221.67 48.4367C221.31 49.0357 220.831 49.5148 220.232 49.8742C219.645 50.2216 218.998 50.3953 218.292 50.3953Z" fill="black"/>
<path d="M234.373 50.557C232.624 50.557 231.048 50.2456 229.647 49.6227C228.257 48.9878 227.155 48.0534 226.341 46.8195C225.538 45.5857 225.137 44.0643 225.137 42.2555C225.137 40.6982 225.424 39.4104 225.999 38.3922C226.574 37.374 227.359 36.5594 228.353 35.9484C229.347 35.3375 230.467 34.8763 231.713 34.5648C232.971 34.2414 234.271 34.0078 235.613 33.8641C237.23 33.6964 238.541 33.5466 239.548 33.4148C240.554 33.2711 241.285 33.0555 241.74 32.768C242.207 32.4685 242.441 32.0073 242.441 31.3844V31.2766C242.441 29.9229 242.039 28.8747 241.237 28.132C240.434 27.3893 239.278 27.018 237.769 27.018C236.176 27.018 234.912 27.3654 233.977 28.0602C233.055 28.7549 232.432 29.5755 232.109 30.5219L226.035 29.6594C226.514 27.9823 227.305 26.5807 228.407 25.4547C229.509 24.3167 230.857 23.4661 232.45 22.9031C234.043 22.3281 235.804 22.0406 237.733 22.0406C239.063 22.0406 240.386 22.1964 241.704 22.5078C243.022 22.8193 244.226 23.3344 245.316 24.0531C246.406 24.7599 247.28 25.7242 247.939 26.9461C248.61 28.168 248.945 29.6953 248.945 31.5281V50H242.692V46.2086H242.477C242.081 46.9753 241.524 47.694 240.805 48.3648C240.099 49.0237 239.206 49.5568 238.128 49.9641C237.062 50.3594 235.81 50.557 234.373 50.557ZM236.062 45.7773C237.367 45.7773 238.499 45.5198 239.458 45.0047C240.416 44.4776 241.153 43.7828 241.668 42.9203C242.195 42.0578 242.459 41.1174 242.459 40.0992V36.8469C242.255 37.0146 241.908 37.1703 241.416 37.3141C240.937 37.4578 240.398 37.5836 239.799 37.6914C239.2 37.7992 238.607 37.8951 238.02 37.9789C237.433 38.0628 236.924 38.1346 236.493 38.1945C235.523 38.3263 234.654 38.5419 233.888 38.8414C233.121 39.1409 232.516 39.5602 232.073 40.0992C231.629 40.6263 231.408 41.3091 231.408 42.1477C231.408 43.3456 231.845 44.25 232.72 44.8609C233.594 45.4719 234.708 45.7773 236.062 45.7773ZM252.956 50V22.4H259.461V50H252.956ZM256.226 18.4828C255.196 18.4828 254.31 18.1414 253.567 17.4586C252.824 16.7638 252.453 15.9312 252.453 14.9609C252.453 13.9786 252.824 13.1461 253.567 12.4633C254.31 11.7685 255.196 11.4211 256.226 11.4211C257.268 11.4211 258.155 11.7685 258.886 12.4633C259.628 13.1461 260 13.9786 260 14.9609C260 15.9312 259.628 16.7638 258.886 17.4586C258.155 18.1414 257.268 18.4828 256.226 18.4828Z" fill="url(#paint1_linear_322_23)"/>
<defs>
<linearGradient id="paint0_linear_322_23" x1="15.5985" y1="16.4137" x2="42.3923" y2="50.7521" gradientUnits="userSpaceOnUse">
<stop stop-color="#7EB4E7"/>
<stop offset="0.288462" stop-color="#FF4F3D"/>
<stop offset="0.697115" stop-color="#FF9F29"/>
<stop offset="1" stop-color="#BD5EA4"/>
</linearGradient>
<linearGradient id="paint1_linear_322_23" x1="80" y1="32" x2="263" y2="32" gradientUnits="userSpaceOnUse">
<stop stop-color="#0A89C3"/>
<stop offset="0.370192" stop-color="#FF46B2"/>
<stop offset="0.716346" stop-color="#FF8B00"/>
<stop offset="1" stop-color="#FF3C00"/>
</linearGradient>
<clipPath id="clip0_322_23">
<rect width="64" height="64" rx="16" fill="white"/>
</clipPath>
</defs>
</svg>
